<svg width="317" height="44" fill="none" xmlns="http://www.w3.org/2000/svg"><path d="M.72 1H8.1l20.16 28.56V1h8.1v42h-7.38L8.82 14.44V43H.72V1Zm48.886 42c-1.76 0-3.18-.5-4.26-1.5-1.04-1.04-1.56-2.4-1.56-4.08V1h8.28v34.8h22.8V43h-25.26Z" fill="#00E65B"/><path d="M90.46 43.48c-2.52 0-4.76-.46-6.72-1.38-1.92-.96-3.42-2.28-4.5-3.96-1.08-1.72-1.62-3.68-1.62-5.88v-7.74c0-2.36.54-4.44 1.62-6.24 1.08-1.8 2.58-3.2 4.5-4.2 1.96-1 4.2-1.5 6.72-1.5h4.8c3.84 0 6.92 1.08 9.24 3.24 2.32 2.16 3.48 5.04 3.48 8.64v6.36h-22.2v1.44c0 1.32.42 2.38 1.26 3.18.84.8 1.98 1.2 3.42 1.2h4.68c1.4 0 2.52-.3 3.36-.9.88-.64 1.32-1.46 1.32-2.46h8.04c0 2-.54 3.78-1.62 5.34s-2.6 2.76-4.56 3.6c-1.92.84-4.14 1.26-6.66 1.26h-4.56Zm9.48-18.54v-.48c0-1.56-.42-2.8-1.26-3.72-.84-.96-1.96-1.44-3.36-1.44h-4.86c-1.44 0-2.6.5-3.48 1.5-.88 1-1.32 2.32-1.32 3.96v.18h14.28Zm18.727-14.7c-1.56 0-2.82-.44-3.78-1.32-.92-.92-1.38-2.12-1.38-3.6s.46-2.66 1.38-3.54c.96-.92 2.22-1.38 3.78-1.38 1.56 0 2.8.46 3.72 1.38.96.88 1.44 2.06 1.44 3.54s-.48 2.68-1.44 3.6c-.92.88-2.16 1.32-3.72 1.32Zm-4.08 2.82h8.16V43h-8.16V13.06ZM143.873 43c-3.52 0-6.1-.8-7.741-2.4-1.639-1.6-2.459-4.08-2.459-7.44V20.02h-5.28v-6.96h5.52V4h7.92v9.06h7.8v6.96h-7.8V32.8c0 1.12.2 1.94.6 2.46.44.52 1.12.78 2.04.78h5.16V43h-5.76Zm21.317.48c-3.16 0-5.7-1.06-7.62-3.18-1.92-2.16-2.88-4.98-2.88-8.46V13.06h8.16v18.9c0 1.32.32 2.4.96 3.24.68.8 1.56 1.2 2.64 1.2h3.48c1.32 0 2.52-.54 3.6-1.62 1.08-1.12 1.84-2.58 2.28-4.38V13.06h8.16V43h-7.56v-3.84c-.92 1.28-2.06 2.32-3.42 3.12-1.32.8-2.6 1.2-3.84 1.2h-3.96Zm25.72-30.42h7.56v3.84c.76-1.16 1.84-2.1 3.24-2.82 1.44-.76 2.94-1.14 4.5-1.14h4.08v7.08h-4.08c-2.12 0-3.84.64-5.16 1.92-1.32 1.28-1.98 2.92-1.98 4.92V43h-8.16V13.06Zm28.128-2.82c-1.56 0-2.82-.44-3.78-1.32-.92-.92-1.38-2.12-1.38-3.6s.46-2.66 1.38-3.54c.96-.92 2.22-1.38 3.78-1.38 1.56 0 2.8.46 3.72 1.38.96.88 1.44 2.06 1.44 3.54s-.48 2.68-1.44 3.6c-.92.88-2.16 1.32-3.72 1.32Zm-4.08 2.82h8.16V43h-8.16V13.06Zm26.826 30.42c-3.64 0-6.56-.96-8.76-2.88s-3.3-4.44-3.3-7.56h8.04c0 1.08.36 1.96 1.08 2.64.76.64 1.74.96 2.94.96h5.4c2.4 0 3.6-.66 3.6-1.98v-1.02c0-.4-.2-.76-.6-1.08-.4-.36-.94-.6-1.62-.72l-10.38-1.8c-2.44-.4-4.38-1.26-5.82-2.58-1.4-1.36-2.1-2.94-2.1-4.74v-1.98c0-2.56 1.04-4.56 3.12-6 2.12-1.44 5.06-2.16 8.82-2.16h4.68c3.36 0 6.06.9 8.1 2.7 2.08 1.76 3.12 4.1 3.12 7.02h-8.04c0-.88-.3-1.58-.9-2.1-.56-.52-1.32-.78-2.28-.78h-4.56c-2.6 0-3.9.6-3.9 1.8v.96c0 .44.16.82.48 1.14.36.28.86.48 1.5.6l10.92 1.98c2.28.4 4.12 1.26 5.52 2.58 1.4 1.28 2.1 2.74 2.1 4.38v2.16c0 2.6-1.08 4.66-3.24 6.18-2.12 1.52-4.96 2.28-8.52 2.28h-5.4Zm35.038-.48c-3.52 0-6.1-.8-7.74-2.4-1.64-1.6-2.46-4.08-2.46-7.44V20.02h-5.28v-6.96h5.52V4h7.92v9.06h7.8v6.96h-7.8V32.8c0 1.12.2 1.94.6 2.46.44.52 1.12.78 2.04.78h5.16V43h-5.76Zm20.306.48c-3.12 0-5.64-.78-7.56-2.34-1.92-1.56-2.88-3.62-2.88-6.18v-2.22c0-2.52 1-4.54 3-6.06 2-1.56 4.64-2.34 7.92-2.34h3.66c1.04 0 2.16.14 3.36.42 1.2.28 2.3.66 3.3 1.14v-3.12c0-1-.34-1.8-1.02-2.4-.64-.64-1.5-.96-2.58-.96h-5.16c-1.12 0-2.02.26-2.7.78-.68.52-1.02 1.22-1.02 2.1h-7.92c0-2.92 1.06-5.26 3.18-7.02 2.16-1.8 4.98-2.7 8.46-2.7h5.16c3.52 0 6.36.94 8.52 2.82 2.16 1.84 3.24 4.3 3.24 7.38V43h-7.56v-3.6c-.96 1.24-2.14 2.24-3.54 3-1.4.72-2.78 1.08-4.14 1.08h-3.72Zm4.32-6.24c1.48 0 2.8-.38 3.96-1.14 1.16-.76 2-1.78 2.52-3.06v-1.02c-.64-.48-1.54-.86-2.7-1.14-1.12-.28-2.32-.42-3.6-.42h-3.78c-.96 0-1.74.24-2.34.72-.6.48-.9 1.12-.9 1.92v1.56c0 .76.32 1.38.96 1.86.68.48 1.56.72 2.64.72h3.24Z" fill="#D1D7DE"/></svg>