<?xml version="1.0" standalone="no"?>
<!DOCTYPE svg PUBLIC "-//W3C//DTD SVG 20010904//EN"
 "http://www.w3.org/TR/2001/REC-SVG-20010904/DTD/svg10.dtd">
<svg version="1.0" xmlns="http://www.w3.org/2000/svg"
 width="1240.000000pt" height="280.000000pt" viewBox="0 0 1240.000000 280.000000"
 preserveAspectRatio="xMidYMid meet">
<metadata>
Created by potrace 1.16, written by Peter Selinger 2001-2019
</metadata>
<g transform="translate(0.000000,280.000000) scale(0.100000,-0.100000)"
fill="#6B2AEE" stroke="none">
<path d="M0 1295 l0 -1285 1275 0 1275 0 0 1285 0 1285 -1275 0 -1275 0 0
-1285z m2480 778 c-1 -10 -76 -371 -168 -803 l-167 -785 -243 -3 c-218 -2
-242 -1 -242 14 0 22 329 1574 336 1585 3 5 113 9 245 9 221 0 239 -1 239 -17z
m-1433 -115 c31 -146 238 -1056 240 -1054 2 2 233 1085 233 1092 0 2 50 4 110
4 69 0 110 -4 110 -10 0 -6 -72 -344 -160 -752 -88 -408 -160 -745 -160 -750
0 -5 -127 -7 -282 -6 l-283 3 -129 537 c-72 295 -131 536 -133 535 -1 -2 -52
-237 -113 -522 -61 -286 -113 -528 -116 -537 -5 -16 -19 -18 -110 -18 -90 0
-104 2 -104 16 0 17 306 1468 315 1492 3 9 70 12 289 12 l284 0 9 -42z"/>
<path d="M3875 2038 c-5 -22 -260 -1232 -272 -1291 l-6 -27 208 2 208 3 133
625 c73 344 138 644 143 668 l9 42 -209 0 c-208 0 -209 0 -214 -22z"/>
<path d="M5615 1978 c-45 -16 -84 -46 -100 -79 -46 -88 -20 -190 57 -228 50
-24 143 -28 199 -10 90 31 147 113 135 197 -13 93 -69 132 -188 131 -40 0 -86
-5 -103 -11z"/>
<path d="M9065 1971 c-71 -33 -105 -86 -105 -164 0 -99 70 -157 190 -157 47 0
79 7 116 24 68 32 97 73 102 150 6 76 -15 118 -73 146 -55 27 -173 27 -230 1z"/>
<path d="M6345 1828 c-37 -54 -141 -148 -193 -176 -31 -17 -89 -40 -129 -52
l-72 -22 -12 -56 c-6 -31 -14 -62 -16 -69 -4 -10 13 -13 71 -13 58 0 76 -3 76
-14 0 -7 -18 -99 -41 -202 -22 -104 -43 -230 -46 -279 -5 -79 -3 -96 16 -132
24 -48 60 -76 116 -92 43 -12 247 -15 331 -5 l51 6 11 63 c16 86 17 85 -27 85
-67 0 -91 14 -91 54 0 29 71 392 96 491 6 24 9 25 84 25 l77 0 12 57 c17 87
20 83 -64 83 -73 0 -75 1 -70 23 3 12 14 65 25 117 12 52 23 103 26 113 5 15
-5 17 -105 17 -103 0 -111 -1 -126 -22z"/>
<path d="M10718 1766 c-85 -91 -148 -130 -265 -166 l-71 -21 -12 -52 c-6 -29
-14 -60 -17 -69 -4 -16 4 -18 71 -18 57 0 76 -3 76 -13 0 -8 -21 -110 -46
-228 -37 -175 -45 -229 -42 -295 3 -69 7 -85 30 -116 44 -57 86 -72 221 -76
66 -2 152 -1 191 3 l73 6 11 63 c16 88 17 86 -27 86 -67 0 -91 14 -91 55 0 27
67 376 95 493 5 20 11 22 84 22 l79 0 11 63 c6 35 11 67 11 70 0 4 -34 7 -75
7 -73 0 -75 1 -70 23 3 12 16 73 29 135 l24 112 -107 -1 -106 0 -77 -83z"/>
<path d="M4635 1584 c-225 -50 -371 -193 -405 -396 -35 -206 33 -365 185 -434
80 -36 171 -47 339 -41 156 6 254 25 336 67 36 18 38 22 64 124 14 58 26 108
26 111 0 3 -76 5 -170 5 -133 0 -170 -3 -170 -13 0 -26 -60 -107 -99 -133 -48
-31 -82 -27 -99 11 -12 27 -16 173 -6 213 l6 22 279 0 278 0 16 30 c44 86 55
242 21 309 -23 43 -78 87 -143 112 -50 19 -80 23 -223 25 -122 3 -183 -1 -235
-12z m235 -146 c21 -23 26 -81 14 -172 l-7 -46 -107 0 -107 0 4 25 c11 53 78
170 112 192 43 29 65 29 91 1z"/>
<path d="M8490 1583 c-30 -11 -67 -38 -111 -83 l-67 -66 -12 73 -13 73 -168 0
c-93 0 -169 -2 -169 -4 0 -5 -165 -790 -175 -833 l-5 -23 207 0 208 0 64 300
c45 208 70 305 81 315 10 9 33 18 53 22 30 5 37 2 53 -21 9 -15 22 -64 27
-112 l11 -84 111 0 110 0 43 203 c24 111 43 206 42 210 0 4 -19 17 -42 27 -54
25 -182 26 -248 3z"/>
<path d="M9685 1583 c-148 -31 -250 -106 -279 -204 -32 -106 -16 -183 53 -249
39 -39 60 -50 141 -74 115 -34 165 -58 185 -90 35 -53 -15 -116 -91 -116 -54
0 -84 33 -84 91 l0 39 -139 0 -138 0 -21 -102 c-11 -57 -19 -104 -18 -105 1
-1 42 -14 91 -29 78 -23 113 -27 265 -31 190 -6 284 4 375 38 128 48 188 128
189 252 0 79 -13 113 -60 161 -40 39 -87 61 -185 86 -150 37 -179 56 -179 120
0 43 47 90 90 90 26 0 33 -6 46 -37 9 -21 14 -51 11 -70 l-6 -33 134 0 c131 0
135 1 140 23 3 12 14 58 24 102 10 44 17 83 15 87 -6 10 -122 46 -188 57 -84
15 -288 12 -371 -6z"/>
<path d="M11435 1584 c-82 -16 -210 -60 -223 -77 -7 -10 -42 -158 -42 -180 0
-4 68 -7 150 -7 109 0 150 3 150 12 0 28 44 100 71 113 41 22 105 19 129 -5
27 -27 34 -61 24 -128 l-9 -57 -155 -7 c-223 -10 -339 -44 -422 -123 -42 -39
-61 -83 -66 -157 -12 -169 94 -266 282 -256 96 5 187 42 254 102 l40 37 16
-55 c9 -30 16 -59 16 -65 0 -8 49 -11 167 -9 l166 3 50 225 c42 194 49 242 50
346 2 118 1 122 -28 169 -37 59 -105 100 -201 120 -87 19 -324 18 -419 -1z
m221 -451 c-3 -10 -10 -46 -17 -80 -14 -77 -37 -115 -82 -136 -46 -22 -69 -21
-101 4 -21 17 -26 29 -26 65 0 98 72 161 188 163 37 1 43 -2 38 -16z"/>
<path d="M5435 1558 c-10 -44 -175 -829 -175 -834 0 -2 92 -4 204 -4 186 0
205 2 210 18 3 9 42 186 86 392 45 206 85 392 89 413 l9 37 -209 0 c-208 0
-209 0 -214 -22z"/>
<path d="M6785 1568 c-2 -7 -31 -140 -64 -295 -81 -376 -80 -426 7 -505 52
-47 105 -61 212 -56 99 5 189 40 258 103 l41 36 10 -38 c5 -21 13 -50 17 -66
l6 -27 167 2 166 3 91 425 91 425 -205 3 c-113 1 -206 1 -208 -1 -2 -1 -32
-139 -68 -306 -67 -314 -73 -328 -128 -357 -63 -33 -103 -9 -100 60 1 31 83
440 117 584 l5 22 -205 0 c-156 0 -207 -3 -210 -12z"/>
<path d="M8905 1568 c-7 -21 -175 -823 -175 -836 0 -9 52 -12 205 -12 113 0
205 2 205 4 0 3 41 192 90 421 50 229 90 421 90 426 0 15 -410 12 -415 -3z"/>
<path d="M2896 1228 c-11 -36 -36 -149 -36 -163 0 -13 38 -15 315 -15 l315 0
5 23 c26 112 35 153 35 160 0 4 -142 7 -315 7 -244 0 -316 -3 -319 -12z"/>
</g>
</svg>
